<mxfile host="www.draw.io" modified="2020-01-09T01:11:03.163Z" agent="Mozilla/5.0 (Windows NT 10.0; WOW64) AppleWebKit/537.36 (KHTML, like Gecko) Chrome/69.0.3497.100 Safari/537.36" etag="N3jKHVqqE_Yjwr2Gr7zO" version="12.4.9" type="github">
  <diagram id="Pk6szY6X2AI3ksfUnbjT" name="第 1 页">
    <mxGraphModel dx="2009" dy="719" grid="1" gridSize="10" guides="1" tooltips="1" connect="1" arrows="1" fold="1" page="1" pageScale="1" pageWidth="827" pageHeight="1169" background="none" math="0" shadow="0">
      <root>
        <mxCell id="0"/>
        <mxCell id="1" parent="0"/>
        <mxCell id="HMCwOFbC17oRcmYb5OWI-1" value="&lt;p style=&quot;margin: 0px ; margin-top: 4px ; text-align: center&quot;&gt;&lt;i&gt;&amp;lt;&amp;lt;Abstract Class&amp;gt;&amp;gt;&lt;/i&gt;&lt;br&gt;&lt;b&gt;AbstractDeployComponent&lt;/b&gt;&lt;br&gt;&lt;/p&gt;&lt;hr size=&quot;1&quot;&gt;&lt;p style=&quot;margin: 0px ; margin-left: 4px&quot;&gt;# result: DeployStatusEnum&lt;br&gt;&lt;/p&gt;&lt;hr size=&quot;1&quot;&gt;&lt;p style=&quot;margin: 0px ; margin-left: 4px&quot;&gt;+ deploy(): Boolean&lt;/p&gt;&lt;p style=&quot;margin: 0px ; margin-left: 4px&quot;&gt;&amp;nbsp; &amp;nbsp; &amp;nbsp; &amp;nbsp; &amp;nbsp; &amp;nbsp; &amp;nbsp; &amp;nbsp; &amp;nbsp; &amp;nbsp;throws DeployException&lt;/p&gt;&lt;p style=&quot;margin: 0px ; margin-left: 4px&quot;&gt;+ getStatus(): DeployStatusEnum&lt;/p&gt;" style="verticalAlign=top;align=left;overflow=fill;fontSize=12;fontFamily=Helvetica;html=1;" parent="1" vertex="1">
          <mxGeometry width="220" height="120" as="geometry"/>
        </mxCell>
        <mxCell id="HMCwOFbC17oRcmYb5OWI-2" value="&lt;p style=&quot;margin: 0px ; margin-top: 4px ; text-align: center&quot;&gt;&lt;i&gt;&amp;lt;&amp;lt;Interface&amp;gt;&amp;gt;&lt;/i&gt;&lt;br&gt;&lt;b&gt;IDeployComponentChain&lt;/b&gt;&lt;br&gt;&lt;/p&gt;&lt;hr size=&quot;1&quot;&gt;&lt;p style=&quot;margin: 0px ; margin-left: 4px&quot;&gt;- chain: List&amp;lt;IDeployComponent&amp;gt;&lt;br&gt;&lt;/p&gt;&lt;p style=&quot;margin: 0px ; margin-left: 4px&quot;&gt;- name: String&lt;/p&gt;&lt;hr size=&quot;1&quot;&gt;&lt;p style=&quot;margin: 0px ; margin-left: 4px&quot;&gt;+ deploy(): Boolean&lt;/p&gt;&lt;p style=&quot;margin: 0px ; margin-left: 4px&quot;&gt;&lt;br&gt;&lt;/p&gt;" style="verticalAlign=top;align=left;overflow=fill;fontSize=12;fontFamily=Helvetica;html=1;" parent="1" vertex="1">
          <mxGeometry x="290" width="190" height="120" as="geometry"/>
        </mxCell>
        <mxCell id="HMCwOFbC17oRcmYb5OWI-4" value="VmDeployComponent" style="swimlane;fontStyle=1;align=center;verticalAlign=top;childLayout=stackLayout;horizontal=1;startSize=26;horizontalStack=0;resizeParent=1;resizeParentMax=0;resizeLast=0;collapsible=1;marginBottom=0;fontColor=#000000;" parent="1" vertex="1">
          <mxGeometry x="10" y="190" width="210" height="110" as="geometry"/>
        </mxCell>
        <mxCell id="HMCwOFbC17oRcmYb5OWI-5" value="- result: Boolean" style="text;strokeColor=none;fillColor=none;align=left;verticalAlign=top;spacingLeft=4;spacingRight=4;overflow=hidden;rotatable=0;points=[[0,0.5],[1,0.5]];portConstraint=eastwest;" parent="HMCwOFbC17oRcmYb5OWI-4" vertex="1">
          <mxGeometry y="26" width="210" height="26" as="geometry"/>
        </mxCell>
        <mxCell id="HMCwOFbC17oRcmYb5OWI-6" value="" style="line;strokeWidth=1;fillColor=none;align=left;verticalAlign=middle;spacingTop=-1;spacingLeft=3;spacingRight=3;rotatable=0;labelPosition=right;points=[];portConstraint=eastwest;" parent="HMCwOFbC17oRcmYb5OWI-4" vertex="1">
          <mxGeometry y="52" width="210" height="8" as="geometry"/>
        </mxCell>
        <mxCell id="HMCwOFbC17oRcmYb5OWI-7" value="+ deploy(): Boolean&#xa;                   throws DeployException&#xa;+ getResult(): Boolean" style="text;strokeColor=none;fillColor=none;align=left;verticalAlign=top;spacingLeft=4;spacingRight=4;overflow=hidden;rotatable=0;points=[[0,0.5],[1,0.5]];portConstraint=eastwest;" parent="HMCwOFbC17oRcmYb5OWI-4" vertex="1">
          <mxGeometry y="60" width="210" height="50" as="geometry"/>
        </mxCell>
        <mxCell id="HMCwOFbC17oRcmYb5OWI-12" value="Extends" style="endArrow=block;endSize=16;endFill=0;html=1;fontColor=#000000;exitX=0.5;exitY=0;exitDx=0;exitDy=0;entryX=0.5;entryY=1;entryDx=0;entryDy=0;" parent="1" source="HMCwOFbC17oRcmYb5OWI-4" target="HMCwOFbC17oRcmYb5OWI-1" edge="1">
          <mxGeometry width="160" relative="1" as="geometry">
            <mxPoint x="90" y="180" as="sourcePoint"/>
            <mxPoint x="250" y="180" as="targetPoint"/>
          </mxGeometry>
        </mxCell>
        <mxCell id="HMCwOFbC17oRcmYb5OWI-17" value="1" style="endArrow=open;html=1;endSize=12;startArrow=diamondThin;startSize=14;startFill=0;edgeStyle=orthogonalEdgeStyle;align=left;verticalAlign=bottom;fontColor=#000000;entryX=1;entryY=0.5;entryDx=0;entryDy=0;exitX=0;exitY=0.5;exitDx=0;exitDy=0;" parent="1" source="HMCwOFbC17oRcmYb5OWI-2" target="HMCwOFbC17oRcmYb5OWI-1" edge="1">
          <mxGeometry x="-0.6667" y="-5" relative="1" as="geometry">
            <mxPoint x="320" y="55" as="sourcePoint"/>
            <mxPoint x="390" y="160" as="targetPoint"/>
            <mxPoint as="offset"/>
          </mxGeometry>
        </mxCell>
        <mxCell id="HMCwOFbC17oRcmYb5OWI-18" value="&lt;div style=&quot;text-align: center&quot;&gt;&lt;i&gt;&amp;lt;&amp;lt;Interface&amp;gt;&amp;gt;&lt;/i&gt;&lt;/div&gt;&lt;p style=&quot;margin: 0px ; margin-top: 4px ; text-align: center&quot;&gt;&lt;b&gt;IDeployComponentChainConfiguration&lt;/b&gt;&lt;br&gt;&lt;/p&gt;&lt;hr size=&quot;1&quot;&gt;&lt;p style=&quot;margin: 0px ; margin-left: 4px&quot;&gt;&lt;/p&gt;&lt;p style=&quot;margin: 0px ; margin-left: 4px&quot;&gt;+ build(): IDeployComponentChain&lt;/p&gt;&lt;p style=&quot;margin: 0px ; margin-left: 4px&quot;&gt;&amp;nbsp; &amp;nbsp; &amp;nbsp; &amp;nbsp; &amp;nbsp; &amp;nbsp; &amp;nbsp; &amp;nbsp; throws DuplicationChainException&lt;/p&gt;&lt;p style=&quot;margin: 0px ; margin-left: 4px&quot;&gt;&lt;br&gt;&lt;/p&gt;" style="verticalAlign=top;align=left;overflow=fill;fontSize=12;fontFamily=Helvetica;html=1;" parent="1" vertex="1">
          <mxGeometry x="550" y="17.5" width="260" height="85" as="geometry"/>
        </mxCell>
        <mxCell id="HMCwOFbC17oRcmYb5OWI-19" value="&lt;p style=&quot;margin: 0px ; margin-top: 4px ; text-align: center&quot;&gt;&lt;b&gt;DeployComponentChainConfiguration&lt;/b&gt;&lt;br&gt;&lt;/p&gt;&lt;hr size=&quot;1&quot;&gt;&lt;p style=&quot;margin: 0px ; margin-left: 4px&quot;&gt;&lt;/p&gt;&lt;p style=&quot;margin: 0px ; margin-left: 4px&quot;&gt;+ build(): IDeployComponentChain&lt;/p&gt;&lt;p style=&quot;margin: 0px ; margin-left: 4px&quot;&gt;&amp;nbsp; &amp;nbsp; &amp;nbsp; &amp;nbsp; &amp;nbsp; &amp;nbsp; &amp;nbsp; &amp;nbsp; throws DuplicationDefinitionException&lt;/p&gt;&lt;p style=&quot;margin: 0px ; margin-left: 4px&quot;&gt;&lt;br&gt;&lt;/p&gt;" style="verticalAlign=top;align=left;overflow=fill;fontSize=12;fontFamily=Helvetica;html=1;" parent="1" vertex="1">
          <mxGeometry x="550" y="190" width="260" height="85" as="geometry"/>
        </mxCell>
        <mxCell id="HMCwOFbC17oRcmYb5OWI-20" value="" style="endArrow=block;dashed=1;endFill=0;endSize=12;html=1;fontColor=#000000;entryX=0.5;entryY=1;entryDx=0;entryDy=0;exitX=0.5;exitY=0;exitDx=0;exitDy=0;" parent="1" source="HMCwOFbC17oRcmYb5OWI-19" target="HMCwOFbC17oRcmYb5OWI-18" edge="1">
          <mxGeometry width="160" relative="1" as="geometry">
            <mxPoint x="610" y="210" as="sourcePoint"/>
            <mxPoint x="770" y="210" as="targetPoint"/>
          </mxGeometry>
        </mxCell>
        <mxCell id="HMCwOFbC17oRcmYb5OWI-22" value="Implement" style="text;html=1;align=center;verticalAlign=middle;resizable=0;points=[];labelBackgroundColor=#ffffff;fontColor=#000000;" parent="HMCwOFbC17oRcmYb5OWI-20" vertex="1" connectable="0">
          <mxGeometry x="-0.2216" y="-1" relative="1" as="geometry">
            <mxPoint as="offset"/>
          </mxGeometry>
        </mxCell>
        <mxCell id="HMCwOFbC17oRcmYb5OWI-23" value="Use" style="endArrow=open;endSize=12;dashed=1;html=1;fontColor=#000000;entryX=1;entryY=0.5;entryDx=0;entryDy=0;exitX=0;exitY=0.5;exitDx=0;exitDy=0;" parent="1" source="HMCwOFbC17oRcmYb5OWI-18" target="HMCwOFbC17oRcmYb5OWI-2" edge="1">
          <mxGeometry width="160" relative="1" as="geometry">
            <mxPoint x="400" y="150" as="sourcePoint"/>
            <mxPoint x="560" y="150" as="targetPoint"/>
          </mxGeometry>
        </mxCell>
        <mxCell id="HMCwOFbC17oRcmYb5OWI-24" value="1.异步链式执行，需要使用数据库获缓存中间件记录链式任务执行进度&lt;br&gt;当进度有更新，则通知DeployContext更新上下文，然后继续调用当前链式任务下个节点的部署任务" style="text;html=1;align=center;verticalAlign=middle;resizable=0;points=[];autosize=1;fontColor=#000000;" parent="1" vertex="1">
          <mxGeometry x="270" y="405" width="540" height="30" as="geometry"/>
        </mxCell>
        <mxCell id="HMCwOFbC17oRcmYb5OWI-25" value="DeployContext" style="swimlane;fontStyle=1;align=center;verticalAlign=top;childLayout=stackLayout;horizontal=1;startSize=26;horizontalStack=0;resizeParent=1;resizeParentMax=0;resizeLast=0;collapsible=1;marginBottom=0;fontColor=#000000;" parent="1" vertex="1">
          <mxGeometry x="10" y="370" width="230" height="138" as="geometry">
            <mxRectangle x="10" y="370" width="120" height="26" as="alternateBounds"/>
          </mxGeometry>
        </mxCell>
        <mxCell id="HMCwOFbC17oRcmYb5OWI-26" value="- context: Map&#xa;- progress: Integer&#xa;- deployChain: IDeployComponentChain" style="text;strokeColor=none;fillColor=none;align=left;verticalAlign=top;spacingLeft=4;spacingRight=4;overflow=hidden;rotatable=0;points=[[0,0.5],[1,0.5]];portConstraint=eastwest;" parent="HMCwOFbC17oRcmYb5OWI-25" vertex="1">
          <mxGeometry y="26" width="230" height="64" as="geometry"/>
        </mxCell>
        <mxCell id="HMCwOFbC17oRcmYb5OWI-27" value="" style="line;strokeWidth=1;fillColor=none;align=left;verticalAlign=middle;spacingTop=-1;spacingLeft=3;spacingRight=3;rotatable=0;labelPosition=right;points=[];portConstraint=eastwest;" parent="HMCwOFbC17oRcmYb5OWI-25" vertex="1">
          <mxGeometry y="90" width="230" height="8" as="geometry"/>
        </mxCell>
        <mxCell id="HMCwOFbC17oRcmYb5OWI-28" value="- load(): Void&#xa;+ getContext(): Map" style="text;strokeColor=none;fillColor=none;align=left;verticalAlign=top;spacingLeft=4;spacingRight=4;overflow=hidden;rotatable=0;points=[[0,0.5],[1,0.5]];portConstraint=eastwest;" parent="HMCwOFbC17oRcmYb5OWI-25" vertex="1">
          <mxGeometry y="98" width="230" height="40" as="geometry"/>
        </mxCell>
        <mxCell id="PLOxVc5f-wypk1EuSOZC-3" value="&lt;p style=&quot;margin: 0px ; margin-top: 4px ; text-align: center ; text-decoration: underline&quot;&gt;&lt;span style=&quot;text-align: left&quot;&gt;DeployStatusEnum&lt;/span&gt;&lt;br&gt;&lt;/p&gt;&lt;hr&gt;&lt;p style=&quot;margin: 0px ; margin-left: 8px&quot;&gt;DEPLOYING =&amp;nbsp;正在部署&lt;br&gt;RETYRING =&amp;nbsp;正在重试&lt;br&gt;SUCCESS =&amp;nbsp;成功&lt;/p&gt;&lt;p style=&quot;margin: 0px ; margin-left: 8px&quot;&gt;FAILED =&amp;nbsp;失败&lt;br&gt;&lt;/p&gt;" style="verticalAlign=top;align=left;overflow=fill;fontSize=12;fontFamily=Helvetica;html=1;" vertex="1" parent="1">
          <mxGeometry x="-240" y="15" width="160" height="90" as="geometry"/>
        </mxCell>
        <mxCell id="PLOxVc5f-wypk1EuSOZC-4" value="Use" style="endArrow=open;endSize=12;dashed=1;html=1;fontColor=#000000;entryX=1;entryY=0.5;entryDx=0;entryDy=0;" edge="1" parent="1" target="PLOxVc5f-wypk1EuSOZC-3">
          <mxGeometry width="160" relative="1" as="geometry">
            <mxPoint y="60" as="sourcePoint"/>
            <mxPoint x="-80" y="70" as="targetPoint"/>
          </mxGeometry>
        </mxCell>
      </root>
    </mxGraphModel>
  </diagram>
</mxfile>
